<?xml version="1.0" encoding="UTF-8" standalone="no"?>
<!-- Generator: Adobe Illustrator 17.0.0, SVG Export Plug-In . SVG Version: 6.00 Build 0)  -->

<svg
   version="1.1"
   id="Layer_2"
   x="0px"
   y="0px"
   width="500px"
   height="500px"
   viewBox="-250 -250 500 500"
   enable-background="new -250 -250 500 500"
   xml:space="preserve"
   sodipodi:docname="and.svg"
   inkscape:version="1.2.1 (8a69933317, 2022-10-28, custom)"
   xmlns:inkscape="http://www.inkscape.org/namespaces/inkscape"
   xmlns:sodipodi="http://sodipodi.sourceforge.net/DTD/sodipodi-0.dtd"
   xmlns="http://www.w3.org/2000/svg"
   xmlns:svg="http://www.w3.org/2000/svg">
    <rect
   x="-250"
   y="-250"
   fill="#FFFFFF"
   stroke="#000000"
   stroke-width="20"
   stroke-miterlimit="10"
   width="500"
   height="500"
   id="rect25" />
  <path
   d="m -24.662871,-13.973791 q -5.92448,5.2734396 -8.72396,10.5468796 -2.73437,5.20833 -2.73437,10.9375 0,9.5052104 6.90104,15.8203104 6.90104,6.3151 17.3177,6.3151 6.1849005,0 11.58855048,-2.01823 5.40364002,-2.08333 10.15625002,-6.25 z m 9.17969,-7.29166 33.07291,33.85416 q 3.84115,-5.7942704 5.98958,-12.36979042 2.14844,-6.64061998 2.53907,-14.06249958 h 12.10937 q -0.78125,8.5937496 -4.16667,16.9921896 -3.38541,8.3984404 -9.4401,16.6015604 l 18.16406,18.55469 h -16.40625 l -9.30989,-9.57032 q -6.77084,5.79428 -14.1927095,8.65886 -7.42187,2.79948 -15.9505205,2.79948 -15.6901,0 -25.65104,-8.91927 -9.96094,-8.98438 -9.96094,-22.9817704 0,-8.33334002 4.36198,-15.625 4.36198,-7.3567696 13.08594,-13.8020896 -3.125,-4.10156 -4.75261,-8.13802 -1.6276,-4.10156 -1.6276,-8.00781 0,-10.54687 7.22656,-16.92708 7.22656,-6.44531 19.20573,-6.44531 5.4036505,0 10.74219048,1.17187 5.40364002,1.17188 10.93749952,3.51563 v 11.84895 q -5.6640595,-3.05989 -10.80728952,-4.62239 -5.14322998,-1.6276 -9.57031998,-1.6276 -6.8359305,0 -11.1328105,3.64583 -4.23177,3.58073 -4.23177,9.30989 0,3.32032 1.88802,6.70573 1.95313,3.32032 7.87761,9.44011 z"
   id="path361" /></svg>
