<?xml version="1.0" encoding="UTF-8" standalone="no"?>
<svg
   width="500px"
   height="500px"
   enable-background="new 0 0 520 500"
   viewBox="0 0 520 500"
   version="1.1"
   id="svg134"
   sodipodi:docname="nandgate.svg"
   inkscape:version="1.2.1 (8a69933317, 2022-10-28, custom)"
   xmlns:inkscape="http://www.inkscape.org/namespaces/inkscape"
   xmlns:sodipodi="http://sodipodi.sourceforge.net/DTD/sodipodi-0.dtd"
   xmlns="http://www.w3.org/2000/svg"
   xmlns:svg="http://www.w3.org/2000/svg">
  <rect
     x="10.136465"
     y="-0.27661082"
     fill="#ffffff"
     stroke="#000000"
     stroke-width="18.3624"
     stroke-miterlimit="10"
     width="420.09723"
     height="501.63757"
     id="rect25" />
  <circle
     fill="#fff"
     stroke="#000"
     stroke-width="10"
     cx="470"
     cy="250"
     r="32"
     id="circle132" />
  <path
     d="m 207.52001,250.76949 q -6.16147,5.48439 -9.07294,10.96878 -2.84376,5.41668 -2.84376,11.37503 0,9.88544 7.17711,16.45316 7.1771,6.56773 18.01046,6.56773 6.4323,0 12.05211,-2.09897 5.6198,-2.16667 10.56252,-6.50001 z m 9.5469,-7.58335 34.39592,35.20842 q 3.9948,-6.02606 6.22918,-12.86461 2.23438,-6.90627 2.64063,-14.62504 h 12.59378 q -0.8125,8.93752 -4.33334,17.67192 -3.52085,8.7344 -9.81774,17.26567 l 18.89068,19.29692 h -17.06255 l -9.68231,-9.95315 q -7.04169,6.02606 -14.76045,9.00523 -7.71877,2.91147 -16.58859,2.91147 -16.31775,0 -26.67715,-9.27607 -10.3594,-9.34377 -10.3594,-23.9011 0,-8.66669 4.53647,-16.25004 4.53647,-7.65106 13.60941,-14.3542 -3.25001,-4.26564 -4.94272,-8.46356 -1.69271,-4.26564 -1.69271,-8.32815 0,-10.96878 7.51564,-17.60421 7.51565,-6.70314 19.97401,-6.70314 5.61981,0 11.1719,1.21875 5.61981,1.21876 11.37503,3.65626 v 12.32295 q -5.89064,-3.1823 -11.23961,-4.80731 -5.34897,-1.69271 -9.95315,-1.69271 -7.10939,0 -11.57815,3.79168 -4.40106,3.72397 -4.40106,9.68231 0,3.45314 1.96355,6.97398 2.03126,3.45313 8.19273,9.81773 z"
     id="path397" />
</svg>
