<?xml version="1.0" encoding="UTF-8" standalone="no" ?>
<!DOCTYPE svg PUBLIC "-//W3C//DTD SVG 1.1//EN" "http://www.w3.org/Graphics/SVG/1.1/DTD/svg11.dtd">
<svg xmlns="http://www.w3.org/2000/svg" xmlns:xlink="http://www.w3.org/1999/xlink" version="1.1" width="400" height="400" viewBox="0 0 400 400" xml:space="preserve">
<desc>Created with Fabric.js 5.2.4</desc>
<defs>
</defs>
<rect x="0" y="0" width="100%" height="100%" fill="transparent"></rect>
<g transform="matrix(1 0 0 1 200 200)" id="82fb6c95-9eaf-4f9a-85c4-68fd82c33736"  >
<rect style="stroke: none; stroke-width: 1; stroke-dasharray: none; stroke-linecap: butt; stroke-dashoffset: 0; stroke-linejoin: miter; stroke-miterlimit: 4; fill: rgb(255,255,255); fill-rule: nonzero; opacity: 1; visibility: hidden;" vector-effect="non-scaling-stroke"  x="-200" y="-200" rx="0" ry="0" width="400" height="400" />
</g>
<g transform="matrix(Infinity NaN NaN Infinity 0 0)" id="c29993f4-e077-4b5d-a19e-68e5b07dea22"  >
</g>
<g transform="matrix(1 0 0 1 200 209.04)" style="" id="d0dd4654-7487-4e6c-a977-25d0ebcb761c"  >
		<text xml:space="preserve" font-family="ARIAL" font-size="121" font-style="normal" font-weight="900" style="stroke: none; stroke-width: 1; stroke-dasharray: none; stroke-linecap: butt; stroke-dashoffset: 0; stroke-linejoin: miter; stroke-miterlimit: 4; fill: rgb(0,0,0); fill-rule: nonzero; opacity: 1; white-space: pre;" ><tspan x="-144.23" y="38.01" >N</tspan><tspan x="-41.5" y="38.01" >O</tspan><tspan x="62.56" y="38.01" >R</tspan></text>
</g>
<g transform="matrix(5.41 0 0 1.53 200 205.63)" id="e1eb1af1-378c-44de-b8fa-1aa54ef84e18"  >
<path style="stroke: rgb(0,0,0); stroke-width: 4; stroke-dasharray: none; stroke-linecap: butt; stroke-dashoffset: 0; stroke-linejoin: miter; stroke-miterlimit: 4; fill: rgb(255,255,255); fill-rule: nonzero; opacity: 1;" vector-effect="non-scaling-stroke"  transform=" translate(-50, -50)" d="M 90.375 90.375 L 9.625 90.375 L 9.625 9.625 L 90.375 9.625 L 90.375 90.375 z M 11.625 88.375 L 88.375 88.375 L 88.375 11.625 L 11.625 11.625 L 11.625 88.375 z" stroke-linecap="round" />
</g>
</svg>