<?xml version="1.0" encoding="UTF-8" standalone="no"?>
<!-- Generator: Adobe Illustrator 17.0.0, SVG Export Plug-In . SVG Version: 6.00 Build 0)  -->

<svg
   version="1.1"
   id="Layer_1"
   x="0px"
   y="0px"
   width="283px"
   height="50px"
   viewBox="0 0 283 50"
   enable-background="new 0 0 283 50"
   xml:space="preserve"
   sodipodi:docname="logo.svg"
   inkscape:version="1.2.1 (8a69933317, 2022-10-28, custom)"
   xmlns:inkscape="http://www.inkscape.org/namespaces/inkscape"
   xmlns:sodipodi="http://sodipodi.sourceforge.net/DTD/sodipodi-0.dtd"
   xmlns="http://www.w3.org/2000/svg"
   xmlns:svg="http://www.w3.org/2000/svg"><defs
   id="defs592" /><sodipodi:namedview
   id="namedview590"
   pagecolor="#ffffff"
   bordercolor="#666666"
   borderopacity="1.0"
   inkscape:showpageshadow="2"
   inkscape:pageopacity="0.0"
   inkscape:pagecheckerboard="0"
   inkscape:deskcolor="#d1d1d1"
   showgrid="false"
   inkscape:zoom="4.6289753"
   inkscape:cx="141.5"
   inkscape:cy="25.167557"
   inkscape:window-width="1846"
   inkscape:window-height="1016"
   inkscape:window-x="74"
   inkscape:window-y="27"
   inkscape:window-maximized="1"
   inkscape:current-layer="Layer_1" />
<g
   id="g477"
   transform="matrix(0.83083663,0,0,0.78819011,3.5125947,5.0798222)">
	<path
   fill="#888888"
   d="m 30.051,5.765 c 0.494,0.418 0.976,0.871 1.446,1.358 3.345,3.467 5.018,7.793 5.018,12.979 0,5.343 -1.686,9.777 -5.057,13.305 -3.372,3.526 -7.452,5.29 -12.24,5.29 -4.841,0 -8.909,-1.719 -12.202,-5.161 -3.294,-3.44 -4.94,-7.892 -4.94,-13.356 0,-5.584 1.902,-10.14 5.706,-13.667 3.302,-3.06 7.252,-4.59 11.852,-4.59 0.855,0 1.689,0.061 2.502,0.183 l -0.6,1.934 c -0.752,-0.149 -1.55,-0.223 -2.395,-0.223 -3.147,0 -5.671,1.167 -7.573,3.501 -2.369,2.905 -3.553,7.157 -3.553,12.759 0,5.74 1.227,10.157 3.683,13.252 1.884,2.351 4.373,3.526 7.469,3.526 3.301,0 6.029,-1.288 8.182,-3.863 2.153,-2.577 3.229,-6.64 3.229,-12.189 0,-6.017 -1.185,-10.504 -3.553,-13.459 z"
   id="path453" />
	<path
   fill="#888888"
   d="m 51.309,36.985 c 0.342,0.052 0.701,0.078 1.077,0.078 1.728,0 3.129,-0.673 4.201,-2.022 1.401,-1.765 2.101,-4.245 2.101,-7.443 0,-3.63 -0.796,-6.423 -2.386,-8.377 -1.107,-1.349 -2.421,-2.022 -3.942,-2.022 -0.83,0 -1.651,0.207 -2.463,0.622 -0.623,0.312 -1.652,1.245 -3.086,2.801 v 8.869 c 0,1.919 0.052,3.116 0.054,3.741 l -0.054,3.288 v 7.235 c 0,1.626 0.099,2.659 0.298,3.099 0.199,0.442 0.544,0.791 1.037,1.051 0.493,0.26 1.388,0.389 2.685,0.389 v 0.96 H 38.382 v -0.96 h 0.649 c 0.95,0.017 1.763,-0.165 2.438,-0.544 0.328,-0.192 0.583,-0.498 0.765,-0.921 0.181,-0.424 0.272,-1.501 0.272,-3.228 V 21.14 c 0,-1.539 -0.069,-2.516 -0.207,-2.931 -0.138,-0.415 -0.359,-0.726 -0.662,-0.933 -0.302,-0.207 -0.713,-0.311 -1.232,-0.311 -0.415,0 -0.943,0.121 -1.582,0.363 l -0.311,-0.83 7.313,-2.956 h 0.985 v 5.55 c 1.227,-2.092 2.459,-3.557 3.695,-4.396 1.236,-0.838 2.537,-1.258 3.903,-1.258 2.386,0 4.374,0.933 5.965,2.801 1.953,2.282 2.931,5.256 2.931,8.921 0,4.097 -1.176,7.486 -3.527,10.166 -1.936,2.195 -4.374,3.292 -7.313,3.292 -0.472,0 -0.92,-0.025 -1.344,-0.074 z"
   id="path455" />
	<path
   fill="#888888"
   d="m 70.772,23.086 c -0.017,3.526 0.839,6.292 2.567,8.298 1.729,2.006 3.761,3.008 6.095,3.008 1.556,0 2.909,-0.427 4.059,-1.283 1.149,-0.856 2.113,-2.321 2.891,-4.397 l 0.804,0.52 c -0.363,2.368 -1.418,4.525 -3.164,6.469 -1.747,1.945 -3.934,2.917 -6.562,2.917 -2.852,0 -5.295,-1.11 -7.326,-3.332 -2.032,-2.222 -3.047,-5.207 -3.047,-8.96 0,-4.063 1.041,-7.231 3.125,-9.505 2.084,-2.274 4.698,-3.41 7.845,-3.41 2.662,0 4.85,0.877 6.561,2.632 1.711,1.755 2.567,4.102 2.567,7.042 l -12.22,0.008 -0.067,-1.504 6.869,-0.008 c -0.087,-1.521 -0.268,-2.594 -0.544,-3.216 -0.432,-0.968 -1.076,-1.729 -1.932,-2.282 -0.856,-0.554 -1.75,-0.83 -2.684,-0.83 -1.435,0 -2.719,0.557 -3.852,1.672 -1.133,1.115 -1.794,2.667 -1.984,4.655"
   id="path457" />
	<path
   fill="#888888"
   d="m 97.277,18.469 c 2.783,-3.354 5.437,-5.031 7.962,-5.031 1.297,0 2.412,0.324 3.345,0.972 0.933,0.649 1.677,1.716 2.23,3.203 0.38,1.038 0.571,2.629 0.571,4.772 v 10.141 c 0,1.503 0.121,2.524 0.363,3.059 0.19,0.433 0.497,0.769 0.921,1.012 0.424,0.241 1.206,0.362 2.347,0.362 v 0.934 h -11.748 v -0.934 h 0.493 c 1.107,0 1.88,-0.168 2.321,-0.505 0.441,-0.336 0.747,-0.833 0.921,-1.491 0.069,-0.26 0.104,-1.072 0.104,-2.438 v -9.726 c 0,-2.16 -0.281,-3.73 -0.843,-4.706 -0.562,-0.977 -1.508,-1.465 -2.839,-1.465 -2.058,0 -4.106,1.124 -6.147,3.371 v 12.527 c 0,1.607 0.094,2.602 0.285,2.981 0.242,0.503 0.574,0.869 0.998,1.103 0.424,0.233 1.284,0.349 2.58,0.349 v 0.934 H 89.393 v -0.934 h 0.519 c 1.21,0 2.027,-0.307 2.451,-0.92 0.423,-0.613 0.635,-1.785 0.635,-3.514 v -8.818 c 0,-2.853 -0.065,-4.591 -0.194,-5.213 -0.13,-0.623 -0.329,-1.046 -0.597,-1.271 -0.268,-0.224 -0.627,-0.337 -1.076,-0.337 -0.484,0 -1.063,0.13 -1.738,0.389 l -0.389,-0.933 7.158,-2.905 h 1.115 z"
   id="path459" />
	<path
   fill="#888888"
   d="m 147.224,1.923 0.805,11.955 h -0.805 c -1.072,-3.579 -2.602,-6.154 -4.59,-7.728 -1.988,-1.573 -4.374,-2.36 -7.157,-2.36 -2.334,0 -4.444,0.593 -6.328,1.777 -1.885,1.185 -3.367,3.073 -4.447,5.667 -1.081,2.593 -1.621,5.818 -1.621,9.673 0,3.182 0.51,5.939 1.53,8.272 1.02,2.334 2.555,4.124 4.603,5.369 2.049,1.244 4.387,1.867 7.015,1.867 2.282,0 4.296,-0.488 6.043,-1.465 1.745,-0.977 3.665,-2.917 5.758,-5.822 l 0.804,0.518 c -1.763,3.129 -3.822,5.42 -6.172,6.873 -2.352,1.452 -5.144,2.178 -8.377,2.178 -5.826,0 -10.339,-2.161 -13.537,-6.484 -2.386,-3.216 -3.578,-7.002 -3.578,-11.358 0,-3.509 0.786,-6.734 2.36,-9.673 1.573,-2.939 3.739,-5.217 6.496,-6.834 2.758,-1.616 5.77,-2.425 9.038,-2.425 2.542,0 5.048,0.623 7.521,1.867 0.726,0.38 1.244,0.571 1.555,0.571 0.467,0 0.873,-0.164 1.219,-0.493 0.449,-0.467 0.769,-1.115 0.96,-1.945 z"
   id="path461" />
	<path
   fill="#888888"
   d="m 160.53,13.438 v 19.088 c 0,1.486 0.106,2.476 0.324,2.969 0.216,0.493 0.535,0.86 0.96,1.103 0.423,0.241 1.197,0.362 2.321,0.362 v 0.934 H 152.594 V 36.96 c 1.158,0 1.936,-0.112 2.334,-0.336 0.398,-0.224 0.713,-0.596 0.947,-1.116 0.233,-0.518 0.349,-1.512 0.349,-2.981 V 23.37 c 0,-2.575 -0.078,-4.243 -0.233,-5.004 -0.122,-0.554 -0.311,-0.938 -0.571,-1.154 -0.26,-0.216 -0.615,-0.324 -1.063,-0.324 -0.484,0 -1.072,0.13 -1.763,0.389 l -0.363,-0.933 7.158,-2.905 h 1.141 z M 158.376,1.016 c 0.727,0 1.344,0.256 1.854,0.765 0.511,0.51 0.765,1.128 0.765,1.854 0,0.726 -0.254,1.349 -0.765,1.868 -0.51,0.518 -1.127,0.778 -1.854,0.778 -0.725,0 -1.349,-0.26 -1.867,-0.778 -0.518,-0.519 -0.778,-1.141 -0.778,-1.868 0,-0.727 0.256,-1.344 0.765,-1.854 0.51,-0.51 1.137,-0.765 1.88,-0.765 z"
   id="path463" />
	<path
   fill="#888888"
   d="m 174.041,13.438 v 5.342 c 1.988,-3.561 4.028,-5.342 6.12,-5.342 0.95,0 1.738,0.29 2.36,0.869 0.622,0.579 0.934,1.249 0.934,2.01 0,0.674 -0.226,1.245 -0.674,1.712 -0.45,0.466 -0.985,0.7 -1.609,0.7 -0.605,0 -1.283,-0.298 -2.036,-0.894 -0.752,-0.597 -1.309,-0.895 -1.672,-0.895 -0.311,0 -0.649,0.173 -1.011,0.519 -0.778,0.709 -1.583,1.876 -2.412,3.501 v 11.385 c 0,1.313 0.163,2.308 0.493,2.983 0.224,0.466 0.622,0.855 1.193,1.167 0.571,0.311 1.391,0.466 2.463,0.466 v 0.934 h -12.162 v -0.934 c 1.21,0 2.11,-0.189 2.697,-0.569 0.432,-0.277 0.734,-0.718 0.907,-1.323 0.087,-0.294 0.131,-1.133 0.131,-2.516 v -9.207 c 0,-2.766 -0.057,-4.412 -0.169,-4.94 -0.112,-0.527 -0.321,-0.911 -0.623,-1.153 -0.302,-0.242 -0.679,-0.363 -1.127,-0.363 -0.537,0 -1.141,0.13 -1.816,0.389 l -0.26,-0.933 7.184,-2.905 h 1.089 z"
   id="path465" />
	<path
   fill="#888888"
   d="m 204.953,28.868 c -0.64,3.129 -1.894,5.537 -3.761,7.222 -1.867,1.687 -3.933,2.528 -6.198,2.528 -2.696,0 -5.048,-1.131 -7.053,-3.397 -2.006,-2.264 -3.008,-5.324 -3.008,-9.18 0,-3.734 1.11,-6.769 3.332,-9.103 2.222,-2.334 4.888,-3.501 8,-3.501 2.335,0 4.253,0.618 5.758,1.854 1.503,1.237 2.256,2.52 2.256,3.852 0,0.657 -0.212,1.189 -0.636,1.595 -0.423,0.406 -1.015,0.609 -1.776,0.609 -1.021,0 -1.789,-0.328 -2.308,-0.985 -0.294,-0.363 -0.488,-1.055 -0.583,-2.075 -0.095,-1.02 -0.444,-1.798 -1.049,-2.334 -0.606,-0.519 -1.444,-0.778 -2.516,-0.778 -1.729,0 -3.122,0.64 -4.175,1.919 -1.401,1.695 -2.101,3.934 -2.101,6.717 0,2.835 0.696,5.338 2.087,7.507 1.393,2.171 3.272,3.255 5.642,3.255 1.694,0 3.216,-0.579 4.564,-1.738 0.95,-0.795 1.875,-2.239 2.774,-4.331 z"
   id="path467" />
	<path
   fill="#888888"
   d="m 229.175,14.138 v 14.393 c 0,2.749 0.064,4.429 0.194,5.044 0.129,0.613 0.336,1.041 0.622,1.283 0.285,0.241 0.618,0.362 0.998,0.362 0.537,0 1.141,-0.146 1.816,-0.44 l 0.363,0.907 -7.106,2.93 h -1.167 v -5.03 c -2.042,2.213 -3.597,3.605 -4.669,4.175 -1.072,0.571 -2.203,0.855 -3.397,0.855 -1.33,0 -2.484,-0.385 -3.461,-1.153 -0.977,-0.769 -1.655,-1.759 -2.036,-2.97 -0.38,-1.21 -0.571,-2.922 -0.571,-5.135 V 18.755 c 0,-1.124 -0.121,-1.902 -0.363,-2.334 -0.241,-0.432 -0.601,-0.765 -1.076,-0.999 -0.476,-0.234 -1.336,-0.341 -2.58,-0.324 v -0.959 h 8.324 v 15.897 c 0,2.213 0.385,3.666 1.154,4.357 0.769,0.691 1.699,1.038 2.788,1.038 0.742,0 1.586,-0.234 2.528,-0.701 0.943,-0.466 2.061,-1.356 3.359,-2.67 V 18.6 c 0,-1.348 -0.247,-2.26 -0.74,-2.736 -0.493,-0.476 -1.518,-0.73 -3.074,-0.765 V 14.14 h 8.094 z"
   id="path469" />
	<path
   fill="#888888"
   d="m 243.103,13.438 v 19.088 c 0,1.486 0.106,2.476 0.324,2.969 0.216,0.493 0.535,0.86 0.96,1.103 0.423,0.241 1.197,0.362 2.321,0.362 v 0.934 H 235.167 V 36.96 c 1.158,0 1.936,-0.112 2.334,-0.336 0.398,-0.224 0.713,-0.596 0.947,-1.116 0.233,-0.518 0.349,-1.512 0.349,-2.981 V 23.37 c 0,-2.575 -0.078,-4.243 -0.233,-5.004 -0.122,-0.554 -0.311,-0.938 -0.571,-1.154 -0.26,-0.216 -0.615,-0.324 -1.063,-0.324 -0.484,0 -1.072,0.13 -1.763,0.389 l -0.363,-0.933 7.158,-2.905 h 1.141 z M 240.949,1.016 c 0.727,0 1.344,0.256 1.854,0.765 0.511,0.51 0.765,1.128 0.765,1.854 0,0.726 -0.254,1.349 -0.765,1.868 -0.51,0.518 -1.127,0.778 -1.854,0.778 -0.725,0 -1.349,-0.26 -1.867,-0.778 -0.518,-0.519 -0.778,-1.141 -0.778,-1.868 0,-0.727 0.256,-1.344 0.765,-1.854 0.51,-0.51 1.137,-0.765 1.88,-0.765 z"
   id="path471" />
	<path
   fill="#888888"
   d="m 256.561,6.332 v 7.806 h 5.55 v 1.815 h -5.55 v 15.405 c 0,1.539 0.22,2.575 0.662,3.112 0.442,0.535 1.007,0.804 1.698,0.804 0.571,0 1.124,-0.177 1.661,-0.531 0.535,-0.355 0.95,-0.877 1.244,-1.57 h 1.012 c -0.606,1.695 -1.461,2.97 -2.568,3.826 -1.106,0.856 -2.247,1.283 -3.423,1.283 -0.795,0 -1.573,-0.22 -2.334,-0.662 -0.761,-0.44 -1.323,-1.072 -1.685,-1.892 -0.363,-0.822 -0.545,-2.088 -0.545,-3.799 V 15.953 h -3.761 v -0.856 c 0.951,-0.38 1.924,-1.024 2.917,-1.931 0.995,-0.908 1.881,-1.984 2.659,-3.229 0.398,-0.657 0.95,-1.858 1.66,-3.605 z"
   id="path473" />
	<path
   fill="#888888"
   d="m 279.771,13.438 v 8.091 h -0.856 c -0.657,-2.542 -1.499,-4.27 -2.528,-5.187 -1.028,-0.916 -2.338,-1.374 -3.928,-1.374 -1.211,0 -2.188,0.32 -2.93,0.959 -0.744,0.64 -1.116,1.349 -1.116,2.127 0,0.969 0.277,1.799 0.831,2.49 0.535,0.709 1.624,1.461 3.267,2.255 l 3.786,1.841 c 3.511,1.712 5.266,3.968 5.266,6.769 0,2.162 -0.818,3.903 -2.452,5.226 -1.633,1.323 -3.461,1.983 -5.484,1.983 -1.452,0 -3.112,-0.258 -4.979,-0.778 -0.571,-0.172 -1.038,-0.258 -1.401,-0.258 -0.398,0 -0.708,0.224 -0.933,0.674 h -0.856 v -8.481 h 0.856 c 0.483,2.422 1.408,4.245 2.774,5.473 1.366,1.228 2.896,1.841 4.59,1.841 1.194,0 2.166,-0.351 2.919,-1.051 0.751,-0.7 1.127,-1.543 1.127,-2.528 0,-1.193 -0.419,-2.196 -1.258,-3.008 -0.839,-0.812 -2.511,-1.841 -5.017,-3.086 -2.507,-1.245 -4.15,-2.368 -4.928,-3.372 -0.778,-0.985 -1.167,-2.23 -1.167,-3.734 0,-1.953 0.67,-3.588 2.009,-4.901 1.34,-1.314 3.074,-1.971 5.2,-1.971 0.934,0 2.066,0.199 3.397,0.596 0.882,0.26 1.469,0.389 1.763,0.389 0.277,0 0.493,-0.06 0.649,-0.181 0.155,-0.121 0.336,-0.389 0.544,-0.804 z"
   id="path475" />
<path
   d="m 287.66579,6.1154791 h 2.00521 v 7.0208559 q 0,1.453129 -0.79167,2.171881 -0.78646,0.718753 -2.38542,0.718753 h -0.40625 v -1.51563 h 0.3125 q 0.625,0 0.94271,-0.34896 0.32292,-0.348959 0.32292,-1.026044 z"
   style="font-weight:bold;-inkscape-font-specification:'sans-serif Bold';fill:#800000"
   id="path516" /><path
   d="M 297.04603,6.3602715 V 8.00611 q -0.64063,-0.2864592 -1.25001,-0.432293 -0.60937,-0.1458338 -1.15104,-0.1458338 -0.71876,0 -1.06251,0.1979173 -0.34375,0.1979173 -0.34375,0.6145853 0,0.312501 0.22917,0.4895849 0.23438,0.1718755 0.84375,0.2968759 l 0.85417,0.1718755 q 1.29688,0.2604175 1.84376,0.7916692 0.54687,0.5312517 0.54687,1.5104217 0,1.286462 -0.76562,1.916672 -0.76042,0.625002 -2.32814,0.625002 -0.73958,0 -1.48438,-0.140625 -0.74479,-0.140625 -1.48958,-0.416668 V 11.79258 q 0.74479,0.395835 1.4375,0.598961 0.69792,0.197917 1.34376,0.197917 0.65625,0 1.00521,-0.218751 0.34896,-0.218751 0.34896,-0.625002 0,-0.364584 -0.23959,-0.562502 -0.23437,-0.197917 -0.94271,-0.354167 l -0.77604,-0.171876 q -1.16667,-0.250001 -1.70834,-0.7968774 -0.53646,-0.5468768 -0.53646,-1.473963 0,-1.161462 0.75,-1.786464 0.75,-0.625002 2.15626,-0.625002 0.64062,0 1.31771,0.098959 0.67709,0.09375 1.40105,0.2864589 z"
   style="font-weight:bold;-inkscape-font-specification:'sans-serif Bold';fill:#800000"
   id="path518" /><path
   d="m 303.03042,6.1154791 h 2.55209 l 1.77084,4.1614719 1.78126,-4.1614719 h 2.54688 v 7.7760659 h -1.89584 V 8.2040273 l -1.79167,4.1927217 h -1.27084 l -1.79167,-4.1927217 v 5.6875177 h -1.90105 z"
   style="font-weight:bold;-inkscape-font-specification:'sans-serif Bold';fill:#800000"
   id="path520" /><path
   d="m 317.19713,7.4279832 q -0.91667,0 -1.42188,0.6770855 -0.50521,0.6770855 -0.50521,1.9062563 0,1.223962 0.50521,1.901047 0.50521,0.677086 1.42188,0.677086 0.92188,0 1.42709,-0.677086 0.50521,-0.677085 0.50521,-1.901047 0,-1.2291708 -0.50521,-1.9062563 -0.50521,-0.6770855 -1.42709,-0.6770855 z m 0,-1.4531296 q 1.87501,0 2.93751,1.0729201 1.0625,1.07292 1.0625,2.9635513 0,1.885422 -1.0625,2.958342 -1.0625,1.07292 -2.93751,1.07292 -1.8698,0 -2.93751,-1.07292 -1.0625,-1.07292 -1.0625,-2.958342 0,-1.8906313 1.0625,-2.9635513 1.06771,-1.0729201 2.93751,-1.0729201 z"
   style="font-weight:bold;-inkscape-font-specification:'sans-serif Bold';fill:#800000"
   id="path522" /><path
   d="m 324.71799,7.6311089 v 4.7448071 h 0.71875 q 1.22917,0 1.87501,-0.609377 0.65104,-0.609377 0.65104,-1.7708393 0,-1.1562537 -0.64584,-1.7604223 -0.64583,-0.6041685 -1.88021,-0.6041685 z m -2.00522,-1.5156298 h 2.11459 q 1.77084,0 2.63543,0.2552091 0.86979,0.2500008 1.48959,0.8541694 0.54687,0.5260433 0.8125,1.2135455 0.26562,0.6875021 0.26562,1.5572966 0,0.8802113 -0.26562,1.5729213 -0.26563,0.687502 -0.8125,1.213546 -0.62501,0.604168 -1.50001,0.859378 -0.875,0.25 -2.62501,0.25 h -2.11459 z"
   style="font-weight:bold;-inkscape-font-specification:'sans-serif Bold';fill:#800000"
   id="path524" /></g></svg>
